<svg xmlns="http://www.w3.org/2000/svg" viewBox="0 0 100 100" width="100" height="100">
  <defs>
    <linearGradient id="apexBg" x1="0" y1="0" x2="1" y2="1">
      <stop offset="0" stop-color="#161A66"/>
      <stop offset="0.55" stop-color="#4A1E78"/>
      <stop offset="1" stop-color="#9A1E6A"/>
    </linearGradient>
    <linearGradient id="apexStar" x1="0" y1="0" x2="0" y2="1">
      <stop offset="0" stop-color="#FFEB6E"/>
      <stop offset="1" stop-color="#FFC21C"/>
    </linearGradient>
  </defs>
  <rect width="100" height="100" rx="24" fill="url(#apexBg)"/>
  <circle cx="20" cy="22" r="1.6" fill="#fff" opacity="0.85"/>
  <circle cx="82" cy="28" r="1.3" fill="#fff" opacity="0.7"/>
  <circle cx="80" cy="80" r="1.5" fill="#fff" opacity="0.75"/>
  <circle cx="22" cy="78" r="1.1" fill="#fff" opacity="0.6"/>
  <g transform="translate(50,50) scale(0.74) translate(-50,-50)">
    <path d="M50 6 Q61.3 38.7 94 50 Q61.3 61.3 50 94 Q38.7 61.3 6 50 Q38.7 38.7 50 6 Z" fill="url(#apexStar)" stroke="#FF9D1C" stroke-width="5.5" stroke-linejoin="round"/>
    <path d="M33 43 Q40 39.5 47 42" fill="none" stroke="#3A2614" stroke-width="3.2" stroke-linecap="round"/>
    <path d="M53 42 Q60 39.5 67 43" fill="none" stroke="#3A2614" stroke-width="3.2" stroke-linecap="round"/>
    <path d="M35.5 50.2 C38 46.4 46 46.4 48.5 49.8 C46 52.8 38 53 35.5 50.2 Z" fill="#FBF1CE" stroke="#3A2614" stroke-width="1.7" stroke-linejoin="round"/>
    <path d="M51.5 49.8 C54 46.4 62 46.4 64.5 50.2 C62 53 54 52.8 51.5 49.8 Z" fill="#FBF1CE" stroke="#3A2614" stroke-width="1.7" stroke-linejoin="round"/>
    <circle cx="42.6" cy="50.5" r="3" fill="#3A2614"/>
    <circle cx="57.8" cy="50.3" r="3" fill="#3A2614"/>
    <path d="M40 61.6 Q50 65.4 60 60.9" fill="none" stroke="#3A2614" stroke-width="2.6" stroke-linecap="round"/>
  </g>
</svg>
